<mxfile host="app.diagrams.net" agent="Mozilla/5.0 (Windows NT 10.0; Win64; x64) AppleWebKit/537.36 (KHTML, like Gecko) Chrome/134.0.0.0 Safari/537.36" version="26.1.3">
  <diagram name="Page-1" id="VENiFGUHwAgLDmIRLfjs">
    <mxGraphModel dx="2476" dy="1258" grid="1" gridSize="10" guides="1" tooltips="1" connect="1" arrows="1" fold="1" page="1" pageScale="1" pageWidth="850" pageHeight="1100" math="0" shadow="0">
      <root>
        <mxCell id="0" />
        <mxCell id="1" parent="0" />
        <mxCell id="DxdIpTKns6M03gS_TKg0-3" value="" style="rounded=1;whiteSpace=wrap;html=1;fillColor=none;strokeColor=#0000FF;strokeWidth=4;" vertex="1" parent="1">
          <mxGeometry x="40" y="30" width="320" height="360" as="geometry" />
        </mxCell>
        <mxCell id="DxdIpTKns6M03gS_TKg0-4" value="&lt;b&gt;&lt;font style=&quot;font-size: 15px;&quot;&gt;Parsyn.Apps.Company.Data.Models&lt;/font&gt;&lt;/b&gt;" style="rounded=0;whiteSpace=wrap;html=1;fillColor=none;strokeColor=#0000FF;strokeWidth=3;" vertex="1" parent="1">
          <mxGeometry x="69" y="60" width="280" height="60" as="geometry" />
        </mxCell>
        <mxCell id="DxdIpTKns6M03gS_TKg0-5" value="&lt;b style=&quot;&quot;&gt;&lt;font style=&quot;font-size: 14px;&quot;&gt;Parsyn.Apps.Company.Data.Models.Dtos&lt;/font&gt;&lt;/b&gt;" style="rounded=0;whiteSpace=wrap;html=1;fillColor=none;strokeColor=#0000FF;strokeWidth=3;" vertex="1" parent="1">
          <mxGeometry x="69" y="150" width="280" height="60" as="geometry" />
        </mxCell>
        <mxCell id="DxdIpTKns6M03gS_TKg0-6" value="&lt;span style=&quot;font-size: 14px;&quot;&gt;&lt;b&gt;Parsyn.Apps.Company.Data&lt;/b&gt;&lt;/span&gt;" style="rounded=0;whiteSpace=wrap;html=1;fillColor=none;strokeColor=#0000FF;strokeWidth=3;" vertex="1" parent="1">
          <mxGeometry x="69" y="240" width="280" height="60" as="geometry" />
        </mxCell>
        <mxCell id="DxdIpTKns6M03gS_TKg0-7" value="" style="endArrow=none;dashed=1;html=1;rounded=0;exitX=0;exitY=0.5;exitDx=0;exitDy=0;strokeWidth=3;strokeColor=#FF0000;" edge="1" parent="1" source="DxdIpTKns6M03gS_TKg0-6">
          <mxGeometry width="50" height="50" relative="1" as="geometry">
            <mxPoint x="19" y="140" as="sourcePoint" />
            <mxPoint x="69" y="90" as="targetPoint" />
            <Array as="points">
              <mxPoint x="50" y="180" />
            </Array>
          </mxGeometry>
        </mxCell>
        <mxCell id="DxdIpTKns6M03gS_TKg0-8" value="&lt;b&gt;&lt;font style=&quot;font-size: 32px; color: rgb(0, 0, 255);&quot;&gt;Data Layers&lt;/font&gt;&lt;/b&gt;" style="text;align=center;html=1;verticalAlign=middle;whiteSpace=wrap;rounded=0;strokeWidth=1;fillColor=#dae8fc;strokeColor=none;" vertex="1" parent="1">
          <mxGeometry x="50" y="320" width="300" height="40" as="geometry" />
        </mxCell>
        <mxCell id="DxdIpTKns6M03gS_TKg0-9" value="" style="rounded=1;whiteSpace=wrap;html=1;fillColor=none;strokeColor=#0000FF;strokeWidth=4;" vertex="1" parent="1">
          <mxGeometry x="490" y="30" width="320" height="360" as="geometry" />
        </mxCell>
        <mxCell id="DxdIpTKns6M03gS_TKg0-10" value="&lt;span style=&quot;font-size: 15px;&quot;&gt;&lt;b&gt;Parsyn.Apps.Company.Service.Utiles&lt;/b&gt;&lt;/span&gt;" style="rounded=0;whiteSpace=wrap;html=1;fillColor=none;strokeColor=#0000FF;strokeWidth=3;" vertex="1" parent="1">
          <mxGeometry x="510" y="70" width="280" height="60" as="geometry" />
        </mxCell>
        <mxCell id="DxdIpTKns6M03gS_TKg0-11" value="&lt;span style=&quot;font-size: 15px;&quot;&gt;&lt;b&gt;Parsyn.Apps.Company.Services&lt;/b&gt;&lt;/span&gt;" style="rounded=0;whiteSpace=wrap;html=1;fillColor=none;strokeColor=#0000FF;strokeWidth=3;" vertex="1" parent="1">
          <mxGeometry x="510" y="190" width="280" height="60" as="geometry" />
        </mxCell>
        <mxCell id="DxdIpTKns6M03gS_TKg0-12" value="" style="endArrow=classic;html=1;rounded=0;entryX=0;entryY=0.5;entryDx=0;entryDy=0;strokeWidth=2;fillColor=#1ba1e2;strokeColor=#006EAF;" edge="1" parent="1" target="DxdIpTKns6M03gS_TKg0-11">
          <mxGeometry width="50" height="50" relative="1" as="geometry">
            <mxPoint x="349" y="90" as="sourcePoint" />
            <mxPoint x="399" y="40" as="targetPoint" />
          </mxGeometry>
        </mxCell>
        <mxCell id="DxdIpTKns6M03gS_TKg0-13" value="" style="endArrow=classic;html=1;rounded=0;entryX=0;entryY=0.75;entryDx=0;entryDy=0;strokeWidth=2;fillColor=#1ba1e2;strokeColor=#006EAF;" edge="1" parent="1" target="DxdIpTKns6M03gS_TKg0-11">
          <mxGeometry width="50" height="50" relative="1" as="geometry">
            <mxPoint x="350" y="180" as="sourcePoint" />
            <mxPoint x="511" y="310" as="targetPoint" />
          </mxGeometry>
        </mxCell>
        <mxCell id="DxdIpTKns6M03gS_TKg0-14" value="" style="endArrow=classic;html=1;rounded=0;entryX=0;entryY=1;entryDx=0;entryDy=0;strokeWidth=2;fillColor=#1ba1e2;strokeColor=#006EAF;" edge="1" parent="1" target="DxdIpTKns6M03gS_TKg0-11">
          <mxGeometry width="50" height="50" relative="1" as="geometry">
            <mxPoint x="349" y="270" as="sourcePoint" />
            <mxPoint x="509" y="325" as="targetPoint" />
          </mxGeometry>
        </mxCell>
        <mxCell id="DxdIpTKns6M03gS_TKg0-15" value="" style="endArrow=none;dashed=1;html=1;rounded=0;strokeWidth=3;strokeColor=#FF0000;" edge="1" parent="1">
          <mxGeometry width="50" height="50" relative="1" as="geometry">
            <mxPoint x="650.41" y="186" as="sourcePoint" />
            <mxPoint x="649.41" y="130" as="targetPoint" />
            <Array as="points" />
          </mxGeometry>
        </mxCell>
        <mxCell id="DxdIpTKns6M03gS_TKg0-16" value="&lt;b&gt;&lt;font style=&quot;font-size: 32px; color: rgb(0, 0, 255);&quot;&gt;Service Layers&lt;/font&gt;&lt;/b&gt;" style="text;align=center;html=1;verticalAlign=middle;whiteSpace=wrap;rounded=0;strokeWidth=1;fillColor=#dae8fc;strokeColor=none;" vertex="1" parent="1">
          <mxGeometry x="500" y="310" width="300" height="40" as="geometry" />
        </mxCell>
        <mxCell id="DxdIpTKns6M03gS_TKg0-17" value="" style="rounded=1;whiteSpace=wrap;html=1;fillColor=none;strokeColor=#0000FF;strokeWidth=4;" vertex="1" parent="1">
          <mxGeometry x="280" y="480" width="320" height="480" as="geometry" />
        </mxCell>
        <mxCell id="DxdIpTKns6M03gS_TKg0-18" value="&lt;span style=&quot;font-size: 15px;&quot;&gt;&lt;b&gt;Parsyn.Apps.Api&lt;/b&gt;&lt;/span&gt;" style="rounded=0;whiteSpace=wrap;html=1;fillColor=none;strokeColor=#0000FF;strokeWidth=3;" vertex="1" parent="1">
          <mxGeometry x="300" y="520" width="280" height="60" as="geometry" />
        </mxCell>
        <mxCell id="DxdIpTKns6M03gS_TKg0-19" value="&lt;span style=&quot;font-size: 15px;&quot;&gt;&lt;b&gt;Parysn.Apps.Admin&lt;/b&gt;&lt;/span&gt;" style="rounded=0;whiteSpace=wrap;html=1;fillColor=none;strokeColor=#0000FF;strokeWidth=3;" vertex="1" parent="1">
          <mxGeometry x="300" y="640" width="280" height="60" as="geometry" />
        </mxCell>
        <mxCell id="DxdIpTKns6M03gS_TKg0-20" value="&lt;span style=&quot;font-size: 15px;&quot;&gt;&lt;b&gt;Parsyn.Apps.Web&lt;/b&gt;&lt;/span&gt;" style="rounded=0;whiteSpace=wrap;html=1;fillColor=none;strokeColor=#0000FF;strokeWidth=3;" vertex="1" parent="1">
          <mxGeometry x="300" y="760" width="280" height="60" as="geometry" />
        </mxCell>
        <mxCell id="DxdIpTKns6M03gS_TKg0-26" value="" style="edgeStyle=elbowEdgeStyle;elbow=horizontal;endArrow=classic;html=1;curved=0;rounded=0;endSize=8;startSize=8;exitX=0;exitY=0.25;exitDx=0;exitDy=0;entryX=0;entryY=0.5;entryDx=0;entryDy=0;fillColor=#1ba1e2;strokeColor=#006EAF;strokeWidth=2;" edge="1" parent="1" source="DxdIpTKns6M03gS_TKg0-4" target="DxdIpTKns6M03gS_TKg0-18">
          <mxGeometry width="50" height="50" relative="1" as="geometry">
            <mxPoint x="80" y="520" as="sourcePoint" />
            <mxPoint x="130" y="470" as="targetPoint" />
            <Array as="points">
              <mxPoint x="10" y="610" />
              <mxPoint x="10" y="270" />
            </Array>
          </mxGeometry>
        </mxCell>
        <mxCell id="DxdIpTKns6M03gS_TKg0-28" value="" style="edgeStyle=elbowEdgeStyle;elbow=horizontal;endArrow=classic;html=1;curved=0;rounded=0;endSize=8;startSize=8;entryX=0;entryY=0.5;entryDx=0;entryDy=0;fillColor=#008a00;strokeColor=#005700;strokeWidth=2;" edge="1" parent="1" target="DxdIpTKns6M03gS_TKg0-20">
          <mxGeometry width="50" height="50" relative="1" as="geometry">
            <mxPoint x="70" y="85" as="sourcePoint" />
            <mxPoint x="310" y="560" as="targetPoint" />
            <Array as="points">
              <mxPoint x="20" y="620" />
              <mxPoint x="20" y="280" />
            </Array>
          </mxGeometry>
        </mxCell>
        <mxCell id="DxdIpTKns6M03gS_TKg0-29" value="" style="edgeStyle=elbowEdgeStyle;elbow=horizontal;endArrow=classic;html=1;curved=0;rounded=0;endSize=8;startSize=8;exitX=1;exitY=0.25;exitDx=0;exitDy=0;entryX=1;entryY=0.25;entryDx=0;entryDy=0;strokeWidth=2;fillColor=#1ba1e2;strokeColor=#006EAF;" edge="1" parent="1" source="DxdIpTKns6M03gS_TKg0-10" target="DxdIpTKns6M03gS_TKg0-18">
          <mxGeometry width="50" height="50" relative="1" as="geometry">
            <mxPoint x="690" y="640" as="sourcePoint" />
            <mxPoint x="740" y="590" as="targetPoint" />
            <Array as="points">
              <mxPoint x="840" y="340" />
            </Array>
          </mxGeometry>
        </mxCell>
        <mxCell id="DxdIpTKns6M03gS_TKg0-30" value="" style="edgeStyle=elbowEdgeStyle;elbow=horizontal;endArrow=classic;html=1;curved=0;rounded=0;endSize=8;startSize=8;exitX=1;exitY=0.5;exitDx=0;exitDy=0;entryX=1;entryY=0.5;entryDx=0;entryDy=0;strokeWidth=2;fillColor=#008a00;strokeColor=#005700;" edge="1" parent="1" source="DxdIpTKns6M03gS_TKg0-10">
          <mxGeometry width="50" height="50" relative="1" as="geometry">
            <mxPoint x="790" y="330" as="sourcePoint" />
            <mxPoint x="580" y="795" as="targetPoint" />
            <Array as="points">
              <mxPoint x="830" y="450" />
            </Array>
          </mxGeometry>
        </mxCell>
        <mxCell id="DxdIpTKns6M03gS_TKg0-32" value="" style="edgeStyle=elbowEdgeStyle;elbow=horizontal;endArrow=classic;html=1;curved=0;rounded=0;endSize=8;startSize=8;exitX=1;exitY=0.5;exitDx=0;exitDy=0;entryX=1;entryY=0.25;entryDx=0;entryDy=0;strokeWidth=2;fillColor=#6a00ff;strokeColor=#3700CC;" edge="1" parent="1" source="DxdIpTKns6M03gS_TKg0-11" target="DxdIpTKns6M03gS_TKg0-20">
          <mxGeometry width="50" height="50" relative="1" as="geometry">
            <mxPoint x="790" y="-30" as="sourcePoint" />
            <mxPoint x="580" y="665" as="targetPoint" />
            <Array as="points">
              <mxPoint x="820" y="440" />
            </Array>
          </mxGeometry>
        </mxCell>
        <mxCell id="DxdIpTKns6M03gS_TKg0-33" value="" style="edgeStyle=elbowEdgeStyle;elbow=horizontal;endArrow=classic;html=1;curved=0;rounded=0;endSize=8;startSize=8;exitX=1;exitY=0.75;exitDx=0;exitDy=0;entryX=1;entryY=0.25;entryDx=0;entryDy=0;strokeWidth=2;fillColor=#6a00ff;strokeColor=#3700CC;" edge="1" parent="1" source="DxdIpTKns6M03gS_TKg0-10">
          <mxGeometry width="50" height="50" relative="1" as="geometry">
            <mxPoint x="790" y="10" as="sourcePoint" />
            <mxPoint x="580" y="565" as="targetPoint" />
            <Array as="points">
              <mxPoint x="850" y="330" />
            </Array>
          </mxGeometry>
        </mxCell>
        <mxCell id="DxdIpTKns6M03gS_TKg0-34" value="" style="endArrow=classic;html=1;rounded=0;entryX=0.357;entryY=1;entryDx=0;entryDy=0;entryPerimeter=0;strokeWidth=2;fillColor=#6a00ff;strokeColor=#3700CC;exitX=0.357;exitY=0;exitDx=0;exitDy=0;exitPerimeter=0;" edge="1" parent="1" source="DxdIpTKns6M03gS_TKg0-19" target="DxdIpTKns6M03gS_TKg0-18">
          <mxGeometry width="50" height="50" relative="1" as="geometry">
            <mxPoint x="400" y="640" as="sourcePoint" />
            <mxPoint x="450" y="590" as="targetPoint" />
          </mxGeometry>
        </mxCell>
        <mxCell id="DxdIpTKns6M03gS_TKg0-35" value="" style="endArrow=classic;html=1;rounded=0;strokeWidth=2;fillColor=#6a00ff;strokeColor=#3700CC;exitX=0.5;exitY=1;exitDx=0;exitDy=0;entryX=0.5;entryY=0;entryDx=0;entryDy=0;" edge="1" parent="1" source="DxdIpTKns6M03gS_TKg0-18" target="DxdIpTKns6M03gS_TKg0-19">
          <mxGeometry width="50" height="50" relative="1" as="geometry">
            <mxPoint x="460" y="640" as="sourcePoint" />
            <mxPoint x="462" y="585" as="targetPoint" />
          </mxGeometry>
        </mxCell>
        <mxCell id="DxdIpTKns6M03gS_TKg0-36" value="&lt;b&gt;&lt;font style=&quot;color: rgb(0, 0, 255); font-size: 31px;&quot;&gt;Presentation Layers&lt;/font&gt;&lt;/b&gt;" style="text;align=center;html=1;verticalAlign=middle;whiteSpace=wrap;rounded=0;strokeWidth=1;fillColor=#dae8fc;strokeColor=none;" vertex="1" parent="1">
          <mxGeometry x="290" y="870" width="300" height="40" as="geometry" />
        </mxCell>
      </root>
    </mxGraphModel>
  </diagram>
</mxfile>
